<?xml version="1.0" encoding="utf-8"?>
<!-- Generator: Adobe Illustrator 16.2.1, SVG Export Plug-In . SVG Version: 6.00 Build 0)  -->
<!DOCTYPE svg PUBLIC "-//W3C//DTD SVG 1.1//EN" "http://www.w3.org/Graphics/SVG/1.1/DTD/svg11.dtd">
<svg version="1.1" id="Layer_1" xmlns="http://www.w3.org/2000/svg" xmlns:xlink="http://www.w3.org/1999/xlink" x="0px" y="0px"
	 width="545.539px" height="223.237px" viewBox="0 0 545.539 223.237" enable-background="new 0 0 545.539 223.237"
	 xml:space="preserve">
<metadata><?xpacket begin="﻿" id="W5M0MpCehiHzreSzNTczkc9d"?>
<x:xmpmeta xmlns:x="adobe:ns:meta/" x:xmptk="Adobe XMP Core 5.3-c011 66.145661, 2012/02/06-14:56:27        ">
   <rdf:RDF xmlns:rdf="http://www.w3.org/1999/02/22-rdf-syntax-ns#">
      <rdf:Description rdf:about=""
            xmlns:dc="http://purl.org/dc/elements/1.1/">
         <dc:format>image/svg+xml</dc:format>
      </rdf:Description>
      <rdf:Description rdf:about=""
            xmlns:xmp="http://ns.adobe.com/xap/1.0/"
            xmlns:xmpGImg="http://ns.adobe.com/xap/1.0/g/img/">
         <xmp:CreatorTool>Adobe Illustrator CS6 (Macintosh)</xmp:CreatorTool>
         <xmp:CreateDate>2013-10-01T10:43:45-07:00</xmp:CreateDate>
         <xmp:ModifyDate>2013-10-01T10:43:45-07:00</xmp:ModifyDate>
         <xmp:MetadataDate>2013-10-01T10:43:45-07:00</xmp:MetadataDate>
         <xmp:Thumbnails>
            <rdf:Alt>
               <rdf:li rdf:parseType="Resource">
                  <xmpGImg:width>256</xmpGImg:width>
                  <xmpGImg:height>104</xmpGImg:height>
                  <xmpGImg:format>JPEG</xmpGImg:format>
                  <xmpGImg:image>/9j/4AAQSkZJRgABAgEASABIAAD/7QAsUGhvdG9zaG9wIDMuMAA4QklNA+0AAAAAABAASAAAAAEA&#xA;AQBIAAAAAQAB/+4ADkFkb2JlAGTAAAAAAf/bAIQABgQEBAUEBgUFBgkGBQYJCwgGBggLDAoKCwoK&#xA;DBAMDAwMDAwQDA4PEA8ODBMTFBQTExwbGxscHx8fHx8fHx8fHwEHBwcNDA0YEBAYGhURFRofHx8f&#xA;Hx8fHx8fHx8fHx8fHx8fHx8fHx8fHx8fHx8fHx8fHx8fHx8fHx8fHx8fHx8f/8AAEQgAaAEAAwER&#xA;AAIRAQMRAf/EAaIAAAAHAQEBAQEAAAAAAAAAAAQFAwIGAQAHCAkKCwEAAgIDAQEBAQEAAAAAAAAA&#xA;AQACAwQFBgcICQoLEAACAQMDAgQCBgcDBAIGAnMBAgMRBAAFIRIxQVEGE2EicYEUMpGhBxWxQiPB&#xA;UtHhMxZi8CRygvElQzRTkqKyY3PCNUQnk6OzNhdUZHTD0uIIJoMJChgZhJRFRqS0VtNVKBry4/PE&#xA;1OT0ZXWFlaW1xdXl9WZ2hpamtsbW5vY3R1dnd4eXp7fH1+f3OEhYaHiImKi4yNjo+Ck5SVlpeYmZ&#xA;qbnJ2en5KjpKWmp6ipqqusra6voRAAICAQIDBQUEBQYECAMDbQEAAhEDBCESMUEFURNhIgZxgZEy&#xA;obHwFMHR4SNCFVJicvEzJDRDghaSUyWiY7LCB3PSNeJEgxdUkwgJChgZJjZFGidkdFU38qOzwygp&#xA;0+PzhJSktMTU5PRldYWVpbXF1eX1RlZmdoaWprbG1ub2R1dnd4eXp7fH1+f3OEhYaHiImKi4yNjo&#xA;+DlJWWl5iZmpucnZ6fkqOkpaanqKmqq6ytrq+v/aAAwDAQACEQMRAD8A9U4q7FXYq7FXYq7FXYq7&#xA;FXYq7FXYq7FXYqo3l5aWVpNeXkyW9rbo0k88jBURFFWZmOwAGKvmj8xv+crr555bDyNAsNuh4/pm&#xA;6QPI9P2oYGHFR4GQEkfsjFNPH7/82PzMv5XkuPNGp1kBDpFdSwxkHqPTiZE/DFKWS+dPOMycJdd1&#xA;GROvF7udh9xfFUNN5g16ZOE2pXUiVrxeeRhX5FsVUDqWokEG6mIOxBkb+uKobFXYq7FXYq7FXYq7&#xA;FUSNS1ECgupqf8ZG/riqvF5g1+FOEWpXUadeKTyKPuDYqiovOnnGJAkWvajGg6Kt3Oo39g+Kpnp/&#xA;5t/mdp8qyW/mjUiUpxSa5knTboPTmMifhir2X8t/+crrg3EOneeYEMT0UazapxKnxnhXYjxaOlP5&#xA;Tiin0nbXNvdW8VzbSpNbzIskM0bBkdGFVZWGxBHQ4oVMVdirsVdirsVdirsVdirsVdirsVdirsVf&#xA;Ln/OVX5k3NxqsfkfT5SlnZqk+r8TT1Z3AeKJqfsxoQ3ux/ycUh884pdirsVdirsVdirsVdirsVdi&#xA;rsVdirsVdirsVdirsVfSP/OKX5k3P1mbyLqMheFke50ZmO6MvxTQD2IrIvhRvHFBYb51m1/y/wCb&#xA;NV0c6jdBLO4dIazyVMRPKIn4u8bKcUPZv+ca/M1zqOi6tpl3O889ncJPG0rF29OdONAWJ2DRH78V&#xA;eoeadYXRfLeqasaVsbWWdAe7ohKL9LUGKvi7/EuvH/pZXX/I6T/mrFX1b+TGm3ll+XunS3sskt3q&#xA;Aa9kaVmc8Zv7uhapp6SrirOMVdirsVdirsVdirsVdir89/zD1GTUvPnmG+d+Zn1G6ZW3+wJmCAV3&#xA;oFAAxZPff+cOf+Ob5o/4zWn/ABGXFBfReKHYq7FXyf8A85ff8pvo3/bMH/URLikPBsUuxV2Ksv8A&#xA;yi/8mh5W/wC2nbf8nBir76xYvzWxZOxV2KuxV2KuxV2Kss/KfUJdP/Mzyvcxv6Z/SdtE71pSOeUR&#xA;SV/2DnFXs3/OT+gmz8zadrkaUi1K3MMzAf7utjSp+cbqB8sWKT/845+YBYfmLHZO1ItVt5bah6eo&#xA;oEyH5/uyo+eKvXv+cjdc/R35cyWqtSTVLmG2p34KTMx+X7oA/PFXzF5b0ufXPMGnaPDX1L+4jgqP&#xA;2Q7AM3+xFTir7qtreG2t4reFeEMKLHEg6BUFFH0AYqqYq7FXYq7FXYq7FXYq7FX5wapcfWdTu7nl&#xA;z9eaSTnSleblq0261xZMj8j/AJo+c/JEV3F5du0tkvmRrkPDHLyMYIWnqK1PtHpir0/8sPz9/M7X&#xA;vP8Aoej6nqMUthe3IiuI1toEJUgmgZUBHTtiin1bih8b65/zkh+bNprWoWsGpwrDb3M0USm1tzRU&#xA;kKqKlPAYppgHnXz95n86X8F/5huFubm2i9CJ0jSICPkXpSMKDuxxSx3FXYq7FWX/AJRf+TQ8rf8A&#xA;bTtv+TgxV99YsX5rYsnYq7FXYq7FXYq7FU08q3H1bzPpFxyC+je20nJug4Sqan7sVfZP/OQ/l39L&#xA;/ltd3MacrnSJEvo6DfgvwS/QI3LH5YsXyl5Z119F8xaZq6VrYXUNwQO4jcMy/SBTFXsX/OVPmKO4&#xA;1jQtJgcNFBavesVOzfWWCJ9ywkj54qlf/OMWgHUvPU2rSLWDRrZnVqVHrXFYkH/AeofoxV7r+aX5&#xA;m2PkbSY5PTF1q15yWxtCaD4ftSyEb8FqPcnYdyFXzhrH5w/mHqs7Sy63cWysarFZsbZFHgPS4t95&#xA;JxVdon5x/mFpFys0esz3iA1eC+drlGHgfUJYf7FgcVfS35a/mJp3nfQzewJ9XvrZhHf2deXpuRVW&#xA;U90enwn5jtiqVfnd5w1zyp5UtNR0aZYLqW/jt3dkSQGNoZXIo4I6xjFXmX5ffnT5+1nzppGl399H&#xA;JZ3c4jnQQRKSpBP2lUEYq9j/ADU8wan5e8haprGmSCK+tfQ9GRlVwPUuI42+FgQfhc4q8G0j8+fz&#xA;HudVsreXUIjFNPFHIPq8IqruAdwvgcVfUF3MYLWaYCpiRnAPfiCcVfm3iydirOPyR/8AJseWP+Yx&#xA;f+ItipfeOLF+dPmf/lJNW/5jLj/k62LJ7h/zjP8Alx5J82aHrVx5h0tNQmtrqOOB3eVOKtHUj92y&#xA;d8UF3/OTH5ceSfKeh6LceXtLTT5rm6kjndHlfkqx1A/eM/fFQkX/ADjP5I8q+bNc1m38w6emoQ21&#xA;rHJAjtInFmkoT+7ZO2KlnX/OQH5Ufl75a/LqbVND0aOyv1uoI1nSSZiFdiGFHdhv8sVDw78ov/Jo&#xA;eVv+2nbf8nBil99YsXjX5Zf842eUdB0yG58z2kWta7KoadZvjtYSf91xxn4Xp3Zwa9qYptGfmT/z&#xA;jx5K8w6JcNoOnW+ja9EjPZS2qiGF3AqIpYlpHxfpyAqvXpsVbfGMkckUjRyKUkQlXRhQgg0IIxS9&#xA;r/IX8h4vOMf+I/MXNPL0blLW1QlHu3Q0erDdYlPwkqak1FRTFBL6f03yH5K0y2W2sNCsLeFQBRbe&#xA;Kpp3ZipZj7k4oYz56/Ir8vvNdjMn6Nh0vU2U+hqVjGsLq/YyInFZR4ht6dCMVt8XeafLep+WvMN/&#xA;oWpoEvbCUxSU+ywoGR1/yXQhl9jiyS+1mEFzDMRyETq/HpXia0xV+jmo2FtqGn3VhdLztryJ4J08&#xA;Y5VKMPpBxYvz91vT7nR9ZvtJuf8AeiwuJbaXtVonKEj50xVV8weZr/Xb2G7vW5SQ2ttZpSv2LWFY&#xA;VO/duHI+5OKvqj/nGPy5+jfy7/Sci0uNauHnB7+jEfRjB+lXYf62KvKv+ckNTmn/ADMmt3PwWVrb&#xA;wxCu1GX1T/w0hxVX/wCcf/y+8v8AnHUdWuNcja4tNLSAJaB2jV3uDJRmZCrUUQnYHviqh+ffkDQv&#xA;Jut6e2iK0NlqUTt9VZ2kEbwsoPF3LNxYOOpO+Ko//nGDUZ08+XlorfuLjT5DInYtHLGVb5ipH04q&#xA;9D/5yifj5A08/wDa2h/6hrjFXh35QTV/Mzy8PG7X/iJxV9I/n43H8ptdPh9U/wCoyHFXyb5en/52&#xA;DTN/+PuD/k4uKvubWZUh0e+lf7EdvK7U8FQk4q/OLFk7FWcfkj/5Njyx/wAxi/8AEWxUvvHFi/On&#xA;zP8A8pJq3/MZcf8AJ1sWT6U/5w9/5RvzD/zGRf8AJrFBd/zmF/yjfl7/AJjJf+TWKhjX/OHv/KSe&#xA;Yf8AmDi/5O4qXpf/ADlL/wCSnuP+Yy2/4kcVD5h/KL/yaHlb/tp23/JwYpffWLF8V2P/ADkd+Z3+&#xA;KoNVu9UBsfXUz6YsaLa+gW+KMKAW+z0avL3xZU+1MWL8/fzPtEtPzH8z28YAjTVLzgo6BWnZlH0A&#xA;0xZPubyNpEOjeTdE0uFOCWljBGRQCriMc2NO7NUn3xYvm/8APD88PP2nfmJqGjaBqjadpulNHEiQ&#xA;pExkk9NXkaRnVyfiYrx6UHStcUgPoD8qPNd55s/L3RdfvQovLuJ1uSo4q0kErwOwA6cmj5UxQ+cf&#xA;+cttPht/zFsbuMANeabE03u8csqcv+ACj6MUh4hil+lOLF8df85QeXTpH5kvqEa0ttbt47oEdPVj&#xA;Hoyj5/ArH/WxV5Rp9tc6hf21harzuruVIIE/mklYIo+knFX6G6Bo9vouh6fpFt/cafbxW0ZpSoiQ&#xA;JU+5pU4q+SP+cjpeP5samP8Aim1/6h0xVnv/ADiI/P8AxZ7fo/8A7GcVQ3/OXEnHUfLXvDdf8Six&#xA;Vjv/ADi5Ly/MqUf9q6f/AJORYq9O/wCcrH4/l5px/wC1vD/1DXOKvB/yamr+aPlseN2v/ETir6a/&#xA;5yEbj+UGvnw+qf8AUbBir5C8tz/87Dpe/wDx9wf8nVxV93+Z/wDlG9W/5g7j/k02KvzoxZOxVnH5&#xA;I/8Ak2PLH/MYv/EWxUvvHFi/OnzP/wApJq3/ADGXH/J1sWT6U/5w9/5RvzD/AMxkX/JrFBd/zmF/&#xA;yjfl7/mMl/5NYqGNf84e/wDKSeYf+YOL/k7ipel/85S/+SnuP+Yy2/4kcVD5h/KL/wAmh5W/7adt&#xA;/wAnBil99YsX5rYsn6U4sXwL+bv/AJNDzT/207n/AJOHFk+8dM/45tp/xhj/AOIDFi8Q87/84t/4&#xA;o82an5g/xN9T/SMxm+rfUfV4VAFOf1hOXT+UYpt6n+XHk3/BfkzTvLX1z6/9Q9b/AEv0/R5+tPJN&#xA;/d85KU9Sn2sUPnT/AJy+/wCU30b/ALZg/wCoiXFIeDYpfpTixfN//OZfBdP8qvxHP1bxQ1N6FYSR&#xA;X6MVeC/lhLX8yvKQ8dZ0/wD6io8VfoVir4u/5yWl4/m7qg/4ptP+odMVegf84cvy/wAXe36O/wCx&#xA;rFUN/wA5hScdS8se8N3/AMSixVjf/OKcnL8z5R/2rbj/AJORYq9S/wCctn4/lxpp/wC1xD/1C3OK&#xA;vAPyUmr+a3lkeN4v/EWxV9R/85Ftx/JvzCfD6n/1HQYq+N/LM/8Azselb/8AH5b/APJ1cVfoNqyq&#xA;+l3iOAytBIGU7ggoagjFX5wYsnYqzj8kf/JseWP+Yxf+ItipfeOLF+dPmf8A5STVv+Yy4/5Otiyf&#xA;Sn/OHv8AyjfmH/mMi/5NYoLv+cwv+Ub8vf8AMZL/AMmsVDGv+cPf+Uk8w/8AMHF/ydxUvS/+cpf/&#xA;ACU9x/zGW3/EjiofMP5Rf+TQ8rf9tO2/5ODFL76xYvzWxZP0pxYvgX83f/Joeaf+2nc/8nDiyfeO&#xA;mf8AHNtP+MMf/EBixeL+dP8AnKGw8seadS0CTy9LdPp0xha4W5VA9ADUKY2p18cU0kv/AEONpv8A&#xA;1K83/SWv/VLFaeQ/nL+aEH5ia7ZapDp7actpa/VjE8olLH1GflUKlPt4pef4q/SnFi+a/wDnNN+O&#xA;meVP+M95/wAQhxV8/wD5Wy1/M3yiPHWtO/6i48Vfopir4j/5yel4/nFqo/4ptP8AqHTFXof/ADhe&#xA;/L/GPt+jf+xrFUN/zmY/HU/K3vDef8TixVjH/OJUnL805R/2rLj/AJORYq9X/wCcwH4/lpph/wC1&#xA;zB/1C3WKvnn8jpq/m15XHjer/wARbFX1Z/zkm3H8lfMR8PqX/UfBir4s8rz/APOy6Tv/AMftv/yd&#xA;XFX6OTwrNBJC5IWVSjEdaMKGmKvzZxZOxVnH5I/+TY8sf8xi/wDEWxUvvHFi/OnzP/ykmrf8xlx/&#xA;ydbFk+lP+cPf+Ub8w/8AMZF/yaxQXf8AOYX/ACjfl7/mMl/5NYqGN/8AOHoP+JPMJ7fU4v8Ak6cV&#xA;L0r/AJyl/wDJT3H/ADGW3/EjiofMP5Rf+TQ8rf8AbTtv+TgxS++sWL81sWT9KcWL4F/N3/yaHmn/&#xA;ALadz/ycOLJ94aS6PpVk6EMjQRFWHQgoCDixfDf55xPF+bXmZXFCbvkPk8asPwOLIPevyL/K38vd&#xA;c/KvRNU1fQra81C4+tevcyBi7cLyaNa0I6KoGKC8s/5yb8peW/LPm3S7TQdPi0+2msBLLFCCAz+t&#xA;IvI1J3oBioeSWMSS3tvE4qkkiKw6bFgDil+kWLF8zf8AObb8dL8p/wDGe9/4hDir55/KqWv5oeTx&#xA;463pv/UXHir9H8VfG/8AzmD5cutP/MG010IfqWsWiKJe3r2vwOh/55mM/wC1irEfyO/Opvy11bUJ&#xA;Z7E6hpuqRxpdQxv6civCWMbqSCpp6jAg+PXFVD86/wA45vzJ8wWt6ln+j9O0+Iw2dsz+o55tyeR2&#xA;AUVag2HSnfFXoP8AzhroN7dectX18qwsbCyNp6nQNPcyIyqCetEiYmnSoxV6L/zmQH/5VfpzKCQm&#xA;tQFyOw+q3IqfpIxV8leVfNd/5Z8x6dr9gI3u9NmWeJJQWjYr1VgCpoRtsa4qzb80fz785/mLAtnc&#xA;Imn6Lb8ZZNPtORRmBCiSdzu1Gb4Rso2774qwfyrP/wA7Po+//H7bf8nVxV+l2Kvzj1uAwazfwEgm&#xA;K5mSo6fDIRiyQWKs4/JH/wAmx5Y/5jF/4i2Kl944sX50+Z/+Uk1b/mMuP+TrYsn0l/zh5LGfL/mO&#xA;IH94t3AzL4Bo2AP08TigvWfzF/LTy55/0qDTtaaeJbaX1re4tXVJEYqVP21kUgg71XFCp5J8n+Tf&#xA;JVsPL2gxpBO6fWZwzc7mVQeHqyt1IqaL0HXiOuKsK/5yl/8AJT3H/MZbf8SOKQ+Yfyi/8mh5W/7a&#xA;dt/ycGKX31ixeAv/AM4j6FH5nhv7TW5o9ESdZm014Q8oVWDektxzGx6VKVA8Tim3v2KH57/mHqUW&#xA;p+ffMWoQP6kF1qV3JA4pvE0zemdv8mmLJ9rfk95nt/Mn5b6HfxSB5orZLS8UHdbi2URyBh25ceQ9&#xA;iMWLDfzO/wCcbtM87eaZPMMGsvpVxcrGL2L6uLhZGiURhl/eQ8DwUA9cU29N8o+WbDyv5a0/QLAs&#xA;1rp8QiR5Kc2NSzO1KCrMxO2KHyN/zk35kt9Z/NC4gtpPUh0e3j09iD8PqozSSj5q8vA+64sg8+8n&#xA;QG483aHADxMuoWqVpWnKZR0xV+iOLF5X+e/5LXX5oWmjwW+qppZ0uSd2aSEzc/WCCgo8dKenirzf&#xA;yh/zh3qegebNF11/NENwmk39rfNALR1MgtpllKBjKacuFK0xV9OYqx3z75C8u+efLs2g67CZLaQh&#xA;4ZkIWWCVQeMsTEGjCvyI2NQcVfK3mP8A5wz/ADCs7pzoWpWGq2Vf3RlZ7Welf2kKvH90mKr/ACz/&#xA;AM4ZefLu7jPmHVLHTLGoMot2e5uKdwq8Y4/p5/QcVfVPkbyN5e8k+XYNB0KExWcNWeRzylllb7Us&#xA;rUHJmp8h0FAMVU/zC8jaV548o3/lvUmaKC8VTHcR0LxSxsHjkWvXiw3HcVHfFXzDH/zhR51OomOX&#xA;zDpy6by2uVSdp+NTv6BVUrTt6uKvW2/5xl8r2P5Yav5Q0K49DVtZW2W98wXSerK/1e5juOIRSgSM&#xA;+lQIp8CeRGKvP9I/5wv1Ww1ayvm81wSC0ninMYs3BYRuGpX1jStMVfU2KvgH81dHm0f8yPMljKpX&#xA;jfzyx1FKxTuZoj9KOMWTFMVTryX5lfyx5p03X44BdPp0wmW3ZuAegIoWAanXwxV7l/0ONqX/AFK8&#xA;P/SW/wD1SxRT581K8N9qN1eleBuppJigNePqMWpX2rill/5Tfmnqn5ea9Lf20AvbG8QRX9izFPUV&#xA;TVHVgG4uhJoSDsSO+KvW/MH/ADmCz2LR6BoBhvXFFuL2UOkZ8RHGAX/4IYop515E/PfzF5b8z6t5&#xA;j1OE69qOrxJFM88xi4hG5DjxRgFHQKAAO2KaTL8zf+ciL3z35Wk0CXRI7BHmjm+sJcNKR6RJpxMa&#xA;dfniinmvlPX38veZtM1xIRcPptzHcrAW4BzGwbiWANK08MUvdv8AocbUv+pXh/6S3/6pYopIPy2/&#xA;5ye8weWdMh0fXLL9N2FuoS2uPVMdzGg6KWIdZFXotaEeOK0mPn7/AJyt1LWNHn0vy3pjaSbpDHNq&#xA;MsokmVGFGESqoCMenPkfah3xWngOKWcfld+bXmL8vdSkmsAt3ptzT67pkrERyU6OrCvCQDblQ+4O&#xA;KvoCw/5y4/L6W253unana3AFWiSOGVSfBX9VK/SoxRTEfPf/ADlpcXljLY+T9OksXmUr+k70oZkB&#xA;2rHChdA3gxc/LFafPEssssryyu0ksjFpJGJZmZjUkk7kk4pZn+S2jz6t+anlm3hBJgvorxyOyWh+&#xA;sMT9EdMVL7zxYuxV2KuxV2KuxV2KuxV2KuxV2KuxV2KvAP8AnJ38prvWbePzlokBmvrKL0tWt4xV&#xA;5LdN0mUDq0W4bvx/1cUh8q4pdirsVdirsVdirsVdirsVdirsVdirsVdirsVdirsVfWn/ADjN+U13&#xA;5d0+XzXrcJh1XU4hFY2sgo8NqSGLOD0eUgbdQo9yAoL3XFDsVdirsVdirsVdirsVdirsVdirsVdi&#xA;rsVeM/mP/wA4yeVPM1zLqWhzfoHU5SWmSNA9rIx6kxArwJ8UNP8AJrim3juo/wDOK35qWrsLdLG/&#xA;UfZaG441HymWLFbS6b/nGr84o1BTRY5STTil3aAj3+OVcU2hpv8AnHf85IQC/lxzXYcLmzf/AIhM&#xA;2K2oP+Qn5vIhc+W5yBuQskDH6AJCTitof/lSP5sf9Sxef8Cv/NWK27/lSP5sf9Sxef8AAr/zVito&#xA;d/yf/NFHKnytqRKmhpbuw+ggEHFWv+VRfmh/1K2p/wDSNJ/TFW0/J/8ANJ3CL5W1EE7Atbuo+ksA&#xA;BiqI/wCVI/mx/wBSxef8Cv8AzVitu/5Uj+bH/UsXn/Ar/wA1YraIT8hPzedA48tzgHcBpIFP0gyA&#xA;jFbV4f8AnHf85JlLJ5dcAGnx3Nmh+55lxW0TD/zjV+cUiktoscRrTi93ak/P4ZWGK2mem/8AOKv5&#xA;pXUiC5FjYRn7bzXHMqPlCslTii3s35bf841+UvKtxFqerSfp3V4iGiaVAltEw3DJDVuTDszk+IAO&#xA;K29gxQ//2Q==</xmpGImg:image>
               </rdf:li>
            </rdf:Alt>
         </xmp:Thumbnails>
      </rdf:Description>
      <rdf:Description rdf:about=""
            xmlns:xmpMM="http://ns.adobe.com/xap/1.0/mm/"
            xmlns:stRef="http://ns.adobe.com/xap/1.0/sType/ResourceRef#"
            xmlns:stEvt="http://ns.adobe.com/xap/1.0/sType/ResourceEvent#">
         <xmpMM:DocumentID>xmp.did:FB7F11740720681183D1A0396417AD4B</xmpMM:DocumentID>
         <xmpMM:InstanceID>xmp.iid:FB7F11740720681183D1A0396417AD4B</xmpMM:InstanceID>
         <xmpMM:DerivedFrom rdf:parseType="Resource">
            <stRef:instanceID>xmp.iid:FA7F11740720681183D1A0396417AD4B</stRef:instanceID>
            <stRef:documentID>xmp.did:FA7F11740720681183D1A0396417AD4B</stRef:documentID>
            <stRef:originalDocumentID>uuid:7FE677A08C5DDD11A427BCA8A5A38CA9</stRef:originalDocumentID>
         </xmpMM:DerivedFrom>
         <xmpMM:OriginalDocumentID>uuid:7FE677A08C5DDD11A427BCA8A5A38CA9</xmpMM:OriginalDocumentID>
         <xmpMM:History>
            <rdf:Seq>
               <rdf:li rdf:parseType="Resource">
                  <stEvt:action>saved</stEvt:action>
                  <stEvt:instanceID>xmp.iid:FA7F11740720681183D1A0396417AD4B</stEvt:instanceID>
                  <stEvt:when>2013-10-01T10:43:04-07:00</stEvt:when>
                  <stEvt:softwareAgent>Adobe Illustrator CS6 (Macintosh)</stEvt:softwareAgent>
                  <stEvt:changed>/</stEvt:changed>
               </rdf:li>
               <rdf:li rdf:parseType="Resource">
                  <stEvt:action>saved</stEvt:action>
                  <stEvt:instanceID>xmp.iid:FB7F11740720681183D1A0396417AD4B</stEvt:instanceID>
                  <stEvt:when>2013-10-01T10:43:45-07:00</stEvt:when>
                  <stEvt:softwareAgent>Adobe Illustrator CS6 (Macintosh)</stEvt:softwareAgent>
                  <stEvt:changed>/</stEvt:changed>
               </rdf:li>
            </rdf:Seq>
         </xmpMM:History>
      </rdf:Description>
      <rdf:Description rdf:about=""
            xmlns:xmpTPg="http://ns.adobe.com/xap/1.0/t/pg/"
            xmlns:stDim="http://ns.adobe.com/xap/1.0/sType/Dimensions#"
            xmlns:xmpG="http://ns.adobe.com/xap/1.0/g/">
         <xmpTPg:MaxPageSize rdf:parseType="Resource">
            <stDim:w>545.539062</stDim:w>
            <stDim:h>223.237305</stDim:h>
            <stDim:unit>Points</stDim:unit>
         </xmpTPg:MaxPageSize>
         <xmpTPg:NPages>1</xmpTPg:NPages>
         <xmpTPg:HasVisibleTransparency>False</xmpTPg:HasVisibleTransparency>
         <xmpTPg:HasVisibleOverprint>False</xmpTPg:HasVisibleOverprint>
         <xmpTPg:PlateNames>
            <rdf:Seq>
               <rdf:li>Cyan</rdf:li>
               <rdf:li>Magenta</rdf:li>
               <rdf:li>Yellow</rdf:li>
               <rdf:li>Black</rdf:li>
            </rdf:Seq>
         </xmpTPg:PlateNames>
         <xmpTPg:SwatchGroups>
            <rdf:Seq>
               <rdf:li rdf:parseType="Resource">
                  <xmpG:groupName>Default Swatch Group</xmpG:groupName>
                  <xmpG:groupType>0</xmpG:groupType>
               </rdf:li>
            </rdf:Seq>
         </xmpTPg:SwatchGroups>
      </rdf:Description>
   </rdf:RDF>
</x:xmpmeta>
                                                                                                    
                                                                                                    
                                                                                                    
                                                                                                    
                                                                                                    
                                                                                                    
                                                                                                    
                                                                                                    
                                                                                                    
                                                                                                    
                                                                                                    
                                                                                                    
                                                                                                    
                                                                                                    
                                                                                                    
                                                                                                    
                                                                                                    
                                                                                                    
                                                                                                    
                                                                                                    
                           
<?xpacket end="w"?>
	</metadata>
<g>
	
		<linearGradient id="SVGID_1_" gradientUnits="userSpaceOnUse" x1="163.1772" y1="96.8752" x2="163.1772" y2="-46.6702" gradientTransform="matrix(1 0 0 -1 -126 132.4751)">
		<stop  offset="0" style="stop-color:#4B4B4B"/>
		<stop  offset="0.9944" style="stop-color:#000000"/>
	</linearGradient>
	<path fill="url(#SVGID_1_)" d="M0,35.6h22.331l14.386,57.377h1.392L51.825,35.6h22.528l-25.804,83.981v59.563H26.377v-56.882
		L0,35.6z"/>
	
		<linearGradient id="SVGID_2_" gradientUnits="userSpaceOnUse" x1="227.9243" y1="61.8967" x2="227.9243" y2="-49.3459" gradientTransform="matrix(1 0 0 -1 -126 132.4751)">
		<stop  offset="0" style="stop-color:#4B4B4B"/>
		<stop  offset="0.9944" style="stop-color:#000000"/>
	</linearGradient>
	<path fill="url(#SVGID_2_)" d="M73.349,97.463c0-8.201,2.649-14.729,7.95-19.592s12.424-7.293,21.372-7.293
		c8.147,0,14.822,2.565,20.025,7.69s7.804,11.722,7.804,19.792v54.691c0,9.062-2.554,16.172-7.654,21.33
		c-5.101,5.158-12.125,7.738-21.07,7.738c-8.613,0-15.506-2.664-20.673-7.986c-5.169-5.322-7.753-12.482-7.753-21.479V97.463z
		 M93.609,154.338c0,2.916,0.699,5.164,2.103,6.754c1.4,1.588,3.401,2.379,6.006,2.379c2.67,0,4.788-0.809,6.358-2.43
		c1.568-1.623,2.354-3.855,2.354-6.703v-57.67c0-2.314-0.804-4.184-2.404-5.605s-3.703-2.135-6.308-2.135
		c-2.401,0-4.354,0.713-5.856,2.135c-1.502,1.422-2.252,3.291-2.252,5.605V154.338z"/>
	
		<linearGradient id="SVGID_3_" gradientUnits="userSpaceOnUse" x1="301.3076" y1="59.2209" x2="301.3076" y2="-48.1995" gradientTransform="matrix(1 0 0 -1 -126 132.4751)">
		<stop  offset="0" style="stop-color:#4B4B4B"/>
		<stop  offset="0.9944" style="stop-color:#000000"/>
	</linearGradient>
	<path fill="url(#SVGID_3_)" d="M203.405,73.254v105.891h-19.687v-11.689c-3.629,4.307-7.404,7.59-11.328,9.842
		c-3.924,2.248-7.735,3.377-11.427,3.377c-4.551,0-7.983-1.574-10.292-4.729c-2.309-3.152-3.461-7.881-3.461-14.186V73.254h19.688
		v81.172c0,2.512,0.412,4.326,1.236,5.449s2.159,1.686,4.008,1.686c1.452,0,3.279-0.742,5.489-2.229
		c2.21-1.488,4.238-3.387,6.087-5.701V73.254H203.405z"/>
</g>
<g>
	<path fill="#231F20" d="M489.85,88.928c-3.133,0-5.381,0.961-6.746,2.879c-1.369,1.92-2.049,5.098-2.049,9.529v9.189h17.393v-9.189
		c0-4.432-0.684-7.609-2.049-9.529C495.031,89.889,492.848,88.928,489.85,88.928z"/>
	<path fill="#231F20" d="M417.463,88.545c-1.402,0-2.791,0.35-4.16,1.042c-1.371,0.696-2.723,1.771-4.059,3.226v64.459
		c1.602,1.721,3.154,2.963,4.66,3.721c1.504,0.762,3.09,1.141,4.762,1.141c2.404,0,4.176-0.742,5.311-2.23
		c1.135-1.486,1.705-3.922,1.705-7.297V99.461c0-3.572-0.701-6.284-2.105-8.136C422.174,89.474,420.133,88.545,417.463,88.545z"/>
	<path fill="#231F20" d="M543.369,48.481c0-25.572-20.99-46.321-46.857-46.321c-36.918-1.541-74.693-2.225-113.223-2.154
		c-38.529-0.07-76.303,0.613-113.224,2.154c-25.865,0-46.857,20.749-46.857,46.321c-1.553,20.253-2.227,40.507-2.166,60.76
		c-0.06,20.253,0.613,40.506,2.167,60.76c0,25.572,20.992,46.322,46.857,46.322c36.92,1.541,74.693,2.225,113.223,2.152
		c38.529,0.072,76.305-0.611,113.223-2.152c25.867,0,46.857-20.75,46.857-46.322c1.553-20.254,2.227-40.507,2.166-60.76
		C545.596,88.988,544.922,68.734,543.369,48.481z M291.295,177.424v1.529h-22.172v-1.529V56.242h-22.937v-1.528V35.408v-1.529
		h68.046v1.529v19.306v1.528h-22.938V177.424z M370.158,73.063v104.361v1.529h-19.688v-1.529v-10.16
		c-3.629,4.307-7.402,7.59-11.328,9.842c-3.924,2.248-7.734,3.377-11.426,3.377c-4.551,0-7.982-1.574-10.291-4.727
		c-2.309-3.154-3.463-7.883-3.463-14.188v-1.529V73.063v-1.529h19.688v1.529v79.643c0,2.512,0.412,4.328,1.236,5.449
		c0.824,1.123,2.16,1.686,4.008,1.686c1.451,0,3.279-0.74,5.49-2.229c2.209-1.486,4.238-3.387,6.086-5.701V73.063v-1.529h19.688
		V73.063z M445.943,98.27v57.215v1.529c0,7.529-1.545,13.291-4.627,17.287s-7.541,5.99-13.373,5.99
		c-3.848,0-7.279-0.773-10.295-2.32s-5.818-3.934-8.404-7.158v6.611v1.529h-19.879v-1.529V35.408v-1.529h19.879v1.529V80.09
		c2.652-3.231,5.469-5.687,8.451-7.37c2.984-1.682,6-2.524,9.053-2.524c6.23,0,10.988,2.265,14.27,6.786
		c3.283,4.521,4.926,11.109,4.926,19.759V98.27z M518.709,101.533v25.43v1.529h-37.654v18.445c0,5.566,0.648,9.43,1.947,11.582
		c1.299,2.156,3.514,3.232,6.65,3.232c3.264,0,5.547-0.912,6.846-2.734c1.299-1.82,1.949-5.85,1.949-12.08v-5.83v-1.529h20.262
		v1.529v6.424v1.529c0,10.854-2.467,19.027-7.4,24.52s-12.303,8.24-22.104,8.24c-8.811,0-15.748-2.912-20.814-8.734
		c-5.064-5.824-7.598-13.832-7.598-24.025v-1.529v-45.998v-1.529c0-9.192,2.781-16.68,8.346-22.468
		c5.561-5.784,12.746-8.679,21.557-8.679c9.006,0,15.926,2.68,20.762,8.037c4.832,5.357,7.252,13.061,7.252,23.109V101.533z"/>
</g>
</svg>
